<svg width="103" height="27" viewBox="0 0 103 27" fill="none" xmlns="http://www.w3.org/2000/svg">
<path d="M9.17708 7.91576H10.5225L13.6862 15.643H13.7953L16.9589 7.91576H18.3044V17.2249H17.2498V10.1521H17.1589L14.2498 17.2249H13.2316L10.3225 10.1521H10.2316V17.2249H9.17708V7.91576Z" fill="#EDF738"/>
<rect x="0.799414" y="0.987402" width="24.8" height="24.8" rx="12.4" stroke="#EDF738" stroke-width="0.8"/>
<path d="M43.3568 12.5703C43.3568 13.5521 43.1795 14.4006 42.825 15.1158C42.4705 15.8309 41.9841 16.3824 41.3659 16.7703C40.7477 17.1582 40.0417 17.3521 39.2477 17.3521C38.4538 17.3521 37.7477 17.1582 37.1295 16.7703C36.5114 16.3824 36.025 15.8309 35.6705 15.1158C35.3159 14.4006 35.1386 13.5521 35.1386 12.5703C35.1386 11.5885 35.3159 10.74 35.6705 10.0249C36.025 9.3097 36.5114 8.75819 37.1295 8.37031C37.7477 7.98243 38.4538 7.78849 39.2477 7.78849C40.0417 7.78849 40.7477 7.98243 41.3659 8.37031C41.9841 8.75819 42.4705 9.3097 42.825 10.0249C43.1795 10.74 43.3568 11.5885 43.3568 12.5703ZM42.2659 12.5703C42.2659 11.7642 42.1311 11.0839 41.8614 10.5294C41.5947 9.97485 41.2326 9.55516 40.775 9.27031C40.3205 8.98546 39.8114 8.84304 39.2477 8.84304C38.6841 8.84304 38.1735 8.98546 37.7159 9.27031C37.2614 9.55516 36.8992 9.97485 36.6295 10.5294C36.3629 11.0839 36.2295 11.7642 36.2295 12.5703C36.2295 13.3764 36.3629 14.0567 36.6295 14.6112C36.8992 15.1658 37.2614 15.5855 37.7159 15.8703C38.1735 16.1552 38.6841 16.2976 39.2477 16.2976C39.8114 16.2976 40.3205 16.1552 40.775 15.8703C41.2326 15.5855 41.5947 15.1658 41.8614 14.6112C42.1311 14.0567 42.2659 13.3764 42.2659 12.5703Z" fill="#EDF738"/>
<rect x="26.4" y="0.987402" width="24.8" height="24.8" rx="12.4" stroke="#EDF738" stroke-width="0.8"/>
<path d="M60.2708 7.91576L63.0344 15.7521H63.1435L65.9072 7.91576H67.089L63.6708 17.2249H62.5072L59.089 7.91576H60.2708Z" fill="#EDF738"/>
<rect x="51.9996" y="0.987402" width="24.8" height="24.8" rx="12.4" stroke="#EDF738" stroke-width="0.8"/>
<path d="M86.139 17.2249V7.91576H91.7572V8.91576H87.2663V12.0612H91.4663V13.0612H87.2663V16.2249H91.8299V17.2249H86.139Z" fill="#EDF738"/>
<rect x="77.5992" y="0.987402" width="24.8" height="24.8" rx="12.4" stroke="#EDF738" stroke-width="0.8"/>
</svg>
