<svg width="7" height="11" viewBox="0 0 7 11" fill="none" xmlns="http://www.w3.org/2000/svg">
<path fill-rule="evenodd" clip-rule="evenodd" d="M3.11297 5.01582C2.94929 5.18199 2.95131 5.44939 3.11748 5.61307C3.28365 5.77674 3.55105 5.77472 3.71473 5.60855L4.88174 4.42377C5.06676 4.69853 5.17474 5.02947 5.17474 5.38563C5.17474 6.33794 4.40274 7.10993 3.45044 7.10993C2.49814 7.10993 1.72614 6.33794 1.72614 5.38563C1.72614 4.43333 2.49814 3.66133 3.45044 3.66133C3.74004 3.66133 4.01296 3.73273 4.25257 3.85887L3.11297 5.01582ZM5.13914 2.9588C4.66041 2.62505 4.07828 2.42933 3.45044 2.42933C1.81772 2.42933 0.494141 3.75291 0.494141 5.38563C0.494141 7.01835 1.81772 8.34193 3.45044 8.34193C5.08316 8.34193 6.40674 7.01835 6.40674 5.38563C6.40674 4.68546 6.16333 4.04214 5.75651 3.53567L6.38202 2.90064C6.5457 2.73447 6.54368 2.46707 6.37751 2.3034C6.21134 2.13972 5.94394 2.14174 5.78027 2.30791L5.13914 2.9588Z" fill="white"/>
</svg>
