<svg width="8" height="12" viewBox="0 0 8 12" fill="none" xmlns="http://www.w3.org/2000/svg">
<g clip-path="url(#clip0_281_1632)">
<path d="M3.78999 4.08086L3.13488 2.36462L3.14618 4.21722L1.92407 2.8983L2.60176 4.60279L0.995632 3.88338L2.23807 5.18349L0.494141 5.16939L2.10931 5.86529L0.494141 6.56353L2.23807 6.54944L0.995632 7.84953L2.60176 7.12778L1.92407 8.83462L3.14618 7.5157L3.13488 9.3683L3.78999 7.65207L4.44509 9.3683L4.43379 7.5157L5.65589 8.83462L4.97822 7.12778L6.58433 7.84953L5.34192 6.54944L7.08583 6.56353L5.47066 5.86529L7.08583 5.16939L5.34192 5.18349L6.58433 3.88338L4.97822 4.60279L5.65589 2.8983L4.43379 4.21722L4.44509 2.36462L3.78999 4.08086Z" fill="#E8E8E8"/>
</g>
<defs>
<clipPath id="clip0_281_1632">
<rect width="6.59169" height="7.00367" fill="white" transform="translate(0.494141 2.36469)"/>
</clipPath>
</defs>
</svg>
