<svg width="235" height="203" viewBox="0 0 235 203" fill="none" xmlns="http://www.w3.org/2000/svg">
<g clip-path="url(#clip0_281_1157)">
<g opacity="0.4">
<path d="M37.9296 200.714C93.5672 200.714 138.667 156.252 138.667 101.385C138.667 46.5185 93.5672 2.05719 37.9296 2.05719C-17.7078 2.05719 -62.8076 46.5471 -62.8076 101.414C-62.8076 156.281 -17.7078 200.743 37.9296 200.743V200.714Z" stroke="#E8E8E8" stroke-width="0.64" stroke-miterlimit="10"/>
<path d="M132.339 200.714C187.976 200.714 233.076 156.252 233.076 101.385C233.076 46.5185 187.976 2.05719 132.339 2.05719C76.7012 2.05719 31.6016 46.5185 31.6016 101.385C31.6016 156.252 76.7012 200.714 132.339 200.714Z" stroke="#E8E8E8" stroke-width="0.64" stroke-miterlimit="10"/>
<path d="M-63.208 101.386H139.068" stroke="#E8E8E8" stroke-width="0.64" stroke-miterlimit="10"/>
</g>
</g>
<defs>
<clipPath id="clip0_281_1157">
<rect width="234.88" height="202.24" fill="white" transform="translate(0 0.279968)"/>
</clipPath>
</defs>
</svg>
