<svg width="588" height="276" viewBox="0 0 588 276" fill="none" xmlns="http://www.w3.org/2000/svg">
<path d="M294.685 37.4748V239.059M438.172 66.5644V65.4445C385.673 65.4445 343.114 98.0444 343.114 138.258C343.114 178.473 385.673 211.072 438.172 211.072V209.953C386.063 209.953 344.285 177.634 344.285 138.258C344.285 98.8826 386.063 66.5644 438.172 66.5644ZM438.059 66.5925H586.7V65.4726H438.059V66.5925ZM586.7 209.941H438.059V211.061H586.7V209.941ZM150.026 209.953V211.072C202.526 211.072 245.084 178.473 245.084 138.259C245.084 98.0445 202.526 65.4446 150.026 65.4446V66.5645C202.136 66.5645 243.914 98.8827 243.914 138.259C243.914 177.634 202.136 209.953 150.026 209.953ZM55.9602 273.56V274.68C108.459 274.68 151.018 213.415 151.018 137.84C151.018 62.2654 108.459 1.00002 55.9602 1.00002V2.11993C81.695 2.11993 105.138 17.1361 122.202 41.6995C139.259 66.2547 149.848 100.242 149.848 137.84C149.848 175.438 139.259 209.425 122.202 233.981C105.138 258.544 81.695 273.56 55.9602 273.56ZM533.23 2.11992V1.00001C480.731 1.00001 438.172 62.2654 438.172 137.84C438.172 213.415 480.731 274.68 533.23 274.68V273.56C507.495 273.56 484.052 258.544 466.989 233.981C449.931 209.425 439.342 175.438 439.342 137.84C439.342 100.242 449.931 66.2547 466.989 41.6995C484.052 17.1361 507.495 2.11992 533.23 2.11992ZM390.073 138.267C390.073 178.47 347.366 211.061 294.685 211.061C242.004 211.061 199.298 178.47 199.298 138.267C199.298 98.0636 242.004 65.4726 294.685 65.4726C347.366 65.4726 390.073 98.0636 390.073 138.267ZM150.141 209.941H1.5V211.061H150.141V209.941ZM1.5 66.5925H150.141V65.4726H1.5V66.5925ZM96.3024 37.4748H493.068V239.059H96.3024V37.4748ZM586.7 96.83V97.9499H411.14V178.583H586.7V179.703H409.97V96.83H586.7ZM1.5 179.703V178.583H177.06V97.9499H1.5V96.83H178.23V179.703H1.5Z" stroke="#D20909" stroke-opacity="0.5" stroke-width="1.32"/>
</svg>
