




<svg width="76" height="63" viewBox="0 0 76 63" fill="none" xmlns="http://www.w3.org/2000/svg">
<path fill-rule="evenodd" clip-rule="evenodd" d="M37.1519 51.7917L37.1003 51.8278C38.5545 54.5959 38.0984 57.8141 35.9042 59.3505C33.71 60.8869 30.5299 60.2148 28.4261 57.9016L28.3745 57.9377L10.3853 32.2465C8.33522 29.3186 8.63817 25.5693 11.062 23.8721C13.4858 22.1749 17.1127 23.1726 19.1628 26.1005L25.4447 35.072L44.9078 21.4438L38.6259 12.4722C36.5758 9.54438 36.8787 5.79505 39.3025 4.09787C41.7264 2.40069 45.3532 3.39836 47.4033 6.32622L65.3925 32.0174L65.3409 32.0536C66.7951 34.8216 66.339 38.0398 64.1447 39.5762C61.9505 41.1126 58.7704 40.4406 56.6667 38.1273L56.6151 38.1635L50.9042 30.0075L31.4411 43.6357L37.1519 51.7917ZM28.9786 57.3991L28.6762 57.0667L10.997 31.8182C9.10417 29.1149 9.50739 25.8723 11.4903 24.4838C13.4732 23.0954 16.6582 23.8255 18.5511 26.5288L36.2302 51.7773L36.4393 52.1751C37.7739 54.7156 37.274 57.4797 35.4759 58.7388C33.6778 59.9978 30.9094 59.5222 28.9786 57.3991ZM46.7916 6.75453L64.4708 32.003L64.6798 32.4009C66.0145 34.9413 65.5145 37.7055 63.7164 38.9645C61.9183 40.2236 59.1499 39.748 57.2191 37.6249L56.9167 37.2924L39.2376 12.0439C37.3447 9.34066 37.7479 6.09802 39.7308 4.70957C41.7138 3.32111 44.8988 4.05127 46.7916 6.75453ZM44.9839 22.3021L26.2252 35.4371L31.365 42.7774L50.1236 29.6425L44.9839 22.3021Z" fill="#D20909"/>
<path fill-rule="evenodd" clip-rule="evenodd" d="M11.8106 36.7187L24.9453 55.477L24.8909 55.5151C25.8533 57.5967 25.0289 60.2803 22.8409 61.8124C20.6529 63.3445 17.8491 63.2012 16.2222 61.5849L16.1678 61.623L3.03312 42.8647L3.03885 42.8602C2.98761 42.7954 2.938 42.7288 2.89011 42.6605C2.84222 42.5921 2.79662 42.5227 2.75331 42.4524C1.44163 40.3235 2.21983 37.3563 4.56617 35.7134C6.91251 34.0704 9.96689 34.354 11.5188 36.3147C11.57 36.3795 11.6197 36.446 11.6675 36.5144C11.7154 36.5828 11.761 36.6522 11.8043 36.7225L11.8106 36.7187ZM11.584 37.7884L11.1686 37.1142C11.1329 37.0563 11.0953 36.9992 11.0558 36.9427C9.84288 35.2104 7.15441 34.8127 4.99448 36.3251C2.83456 37.8375 2.28884 40.4998 3.5018 42.2321C3.54131 42.2886 3.58219 42.3434 3.62438 42.3967L4.11585 43.0176L4.07289 43.0477L16.5294 60.8375L16.7485 61.0552C18.0775 62.3755 20.4701 62.5609 22.4126 61.2007C24.3551 59.8405 24.9993 57.5289 24.2131 55.8285L24.0834 55.5481L11.6269 37.7583L11.584 37.7884Z" fill="#D20909"/>
<path fill-rule="evenodd" clip-rule="evenodd" d="M7.02774 51.0064C6.08154 49.655 3.94761 49.5167 2.26147 50.6973C0.575332 51.878 -0.0245018 53.9305 0.921703 55.2819L3.49159 58.952C4.43779 60.3034 6.57173 60.4417 8.25786 59.2611C9.944 58.0804 10.5438 56.0279 9.59763 54.6765L7.02774 51.0064ZM6.41605 51.4347C5.79002 50.5406 4.17141 50.2716 2.68978 51.309C1.20816 52.3465 0.907372 53.9595 1.5334 54.8535L4.10328 58.5237C4.72931 59.4178 6.34792 59.6868 7.82955 58.6494C9.31117 57.6119 9.61196 55.9989 8.98593 55.1049L6.41605 51.4347Z" fill="#D20909"/>
<path fill-rule="evenodd" clip-rule="evenodd" d="M59.8957 3.04912L59.8894 3.05296C59.8461 2.98265 59.8005 2.91327 59.7526 2.84487C59.7048 2.77648 59.6551 2.7099 59.6039 2.64516C58.052 0.684452 54.9976 0.400887 52.6513 2.04381C50.3049 3.68674 49.5267 6.6539 50.8384 8.78281C50.8817 8.85311 50.9273 8.9225 50.9752 8.9909C51.0231 9.05929 51.0727 9.12586 51.124 9.19061L51.118 9.1948L64.2529 27.9535L64.3073 27.9154C65.9342 29.5317 68.738 29.6749 70.926 28.1428C73.114 26.6107 73.9384 23.9271 72.976 21.8455L73.0304 21.8074L59.8957 3.04912ZM59.2537 3.44466L59.6691 4.11886L59.712 4.08878L72.1685 21.8785L72.2982 22.1589C73.0844 23.8593 72.4402 26.171 70.4977 27.5311C68.5552 28.8913 66.1626 28.706 64.8336 27.3856L64.6145 27.1679L52.158 9.37818L52.201 9.3481L51.7095 8.72716C51.6673 8.67386 51.6264 8.619 51.5869 8.56258C50.3739 6.83029 50.9197 4.1679 53.0796 2.65551C55.2395 1.14311 57.928 1.5409 59.1409 3.27319C59.1805 3.3296 59.218 3.38678 59.2537 3.44466Z" fill="#D20909"/>
<path fill-rule="evenodd" clip-rule="evenodd" d="M67.8055 5.41065C66.1194 6.59129 65.5195 8.64386 66.4657 9.99518L69.0356 13.6654C69.9818 15.0167 72.1157 15.155 73.8019 13.9744C75.488 12.7937 76.0879 10.7412 75.1417 9.38985L72.5718 5.71968C71.6256 4.36836 69.4916 4.23 67.8055 5.41065ZM68.2338 6.02234C66.7522 7.05979 66.4514 8.67281 67.0774 9.56686L69.6473 13.237C70.2733 14.1311 71.8919 14.4001 73.3736 13.3627C74.8552 12.3252 75.156 10.7122 74.53 9.81817L71.9601 6.148C71.334 5.25394 69.7154 4.9849 68.2338 6.02234Z" fill="#D20909"/>
</svg>
