<svg width="43" height="36" viewBox="0 0 43 36" fill="none" xmlns="http://www.w3.org/2000/svg">
<path d="M14.092 19.7422L10.5741 14.7181C9.42603 13.0785 7.37065 12.5368 5.98331 13.5083C4.59596 14.4797 4.40197 16.5964 5.55003 18.236L15.624 32.6231L15.6535 32.6024C16.8356 33.895 18.639 34.2556 19.8949 33.3762C21.1509 32.4967 21.4288 30.6788 20.6185 29.1259L20.648 29.1052L17.45 24.5379L28.1832 17.0224L31.3813 21.5897L31.4108 21.569C32.5929 22.8616 34.3963 23.2222 35.6522 22.3428C36.9082 21.4634 37.1861 19.6454 36.3758 18.0925L36.4053 18.0718L26.3314 3.68473C25.1833 2.04513 23.1279 1.50348 21.7406 2.47491C20.3532 3.44633 20.1593 5.56301 21.3073 7.20261L24.8252 12.2267L14.092 19.7422Z" fill="#D20909" fill-opacity="0.7"/>
<path d="M6.3008 20.7733L6.30406 20.771L13.6596 31.2759L13.6299 31.2967C14.1734 32.4592 13.7365 33.9447 12.541 34.7818C11.3456 35.6189 9.8002 35.5213 8.89366 34.613L8.86395 34.6338L1.50837 24.129L1.51163 24.1267C1.48298 24.0904 1.45523 24.0531 1.42841 24.0148C0.589445 22.8166 0.982889 21.0936 2.30717 20.1663C3.63146 19.239 5.38514 19.4586 6.22411 20.6568C6.25093 20.6951 6.2765 20.7339 6.3008 20.7733Z" fill="#D20909" fill-opacity="0.7"/>
<path d="M0.276041 31.1178L1.71518 33.1731C2.24505 33.9299 3.44142 34.0064 4.38735 33.3441C5.33326 32.6817 5.67055 31.5313 5.14067 30.7746L3.70154 28.7193C3.17166 27.9625 1.97528 27.886 1.02937 28.5484C0.0834373 29.2107 -0.253837 30.3611 0.276041 31.1178Z" fill="#D20909" fill-opacity="0.7"/>
<path d="M33.2513 1.90233L33.248 1.90462C33.2237 1.86528 33.1982 1.82645 33.1714 1.78815C32.3324 0.589977 30.5787 0.370381 29.2544 1.29766C27.9301 2.22493 27.5367 3.94796 28.3757 5.14613C28.3946 5.17317 28.414 5.19971 28.4339 5.22575C28.4421 5.2366 28.4505 5.24737 28.4589 5.25803L28.4556 5.26031L35.8112 15.7652L35.8409 15.7444C36.7474 16.6527 38.2928 16.7502 39.4883 15.9131C40.6837 15.076 41.1206 13.5905 40.5772 12.428L40.6069 12.4072L33.2513 1.90233Z" fill="#D20909" fill-opacity="0.7"/>
<path d="M40.4001 3.36302L41.8392 5.41832C42.3691 6.17507 42.0318 7.32546 41.0859 7.9878C40.14 8.65014 38.9436 8.57362 38.4137 7.81688L36.9746 5.76158C36.4447 5.00484 36.782 3.85444 37.7279 3.1921C38.6738 2.52977 39.8702 2.60628 40.4001 3.36302Z" fill="#D20909" fill-opacity="0.7"/>
</svg>
