<svg width="388" height="388" viewBox="0 0 388 388" fill="none" xmlns="http://www.w3.org/2000/svg">
<path fill-rule="evenodd" clip-rule="evenodd" d="M184.018 188.472C180.966 193.984 182.96 200.928 188.472 203.981C193.985 207.033 200.928 205.039 203.981 199.527C207.034 194.014 205.04 187.071 199.527 184.018C194.015 180.965 187.071 182.959 184.018 188.472ZM185.016 189.025C182.269 193.986 184.064 200.235 189.025 202.983C193.986 205.73 200.236 203.935 202.983 198.974C205.73 194.013 203.936 187.763 198.974 185.016C194.013 182.269 187.764 184.063 185.016 189.025Z" fill="#FF8A00" fill-opacity="0.5"/>
<path d="M137.066 100.879C129.349 105.548 122.314 111.116 116.072 117.411C116.369 117.654 116.645 117.916 116.901 118.195C122.909 112.14 129.659 106.763 137.051 102.225L137.066 100.879Z" fill="#FF8A00" fill-opacity="0.5"/>
<path d="M86.7203 217.739C79.9774 186.515 87.2743 155.527 104.37 131.352C104.645 131.613 104.939 131.855 105.254 132.079C88.3703 155.992 81.1692 186.629 87.8356 217.498C98.7103 267.855 142.944 302.419 192.361 303.024L192.984 304.171C142.79 303.851 97.7563 268.842 86.7203 217.739Z" fill="#FF8A00" fill-opacity="0.5"/>
<path fill-rule="evenodd" clip-rule="evenodd" d="M113.299 339.728C32.816 295.159 3.70207 193.783 48.2717 113.299C92.8414 32.816 194.217 3.70207 274.701 48.2717C355.184 92.8414 384.298 194.217 339.728 274.701C295.159 355.184 193.783 384.298 113.299 339.728ZM31.7453 226.327C24.3435 189.272 29.5298 149.499 49.2699 113.852C69.8551 76.6797 102.642 50.5408 139.868 37.6646L149.34 70.646C108.888 85.5062 76.5794 119.969 66.4447 165.146C62.5207 182.638 62.2884 200.098 65.2317 216.71L31.7453 226.327ZM150.416 70.2563L140.949 37.2949C147.728 35.0022 154.651 33.148 161.672 31.7456L171.14 64.7132C164.055 65.9965 157.126 67.8575 150.416 70.2563ZM172.269 64.5137C188.691 61.6884 205.927 61.9644 223.195 65.8382C223.772 65.9676 224.348 66.1007 224.921 66.2374C225.292 66.3257 225.661 66.4154 226.03 66.5067L223.294 76.3792C233.461 78.8797 243.469 82.7517 253.065 88.066C301.602 114.944 324.404 170.276 312.194 221.734L322.184 223.975C322.097 224.346 322.008 224.715 321.918 225.084C320.283 231.769 318.16 238.211 315.596 244.381L345.342 260.854C379.678 183.367 349.707 91.1124 274.148 49.2699C238.861 29.729 199.531 24.4496 162.795 31.5251L172.269 64.5137ZM344.875 261.899L315.151 245.439C312.282 252.171 308.886 258.575 305.023 264.61L334.696 281.042C336.088 278.788 337.433 276.49 338.73 274.148C340.964 270.114 343.011 266.028 344.875 261.899ZM165.753 321.897C220.705 334.224 275.338 310.117 304.403 265.571L334.092 282.012C287.74 355.936 191.105 381.511 113.852 338.73C77.5476 318.626 51.7674 286.883 38.5882 250.732L72.0522 241.121C87.3245 280.58 121.368 311.94 165.753 321.897ZM71.6435 240.051L38.2002 249.656C35.6141 242.408 33.533 234.986 31.9734 227.449L65.4367 217.838C66.8547 225.452 68.9403 232.882 71.6435 240.051ZM182.521 138.512C185.105 153.373 182.954 168.946 175.32 182.935C167.589 197.104 155.448 207.422 141.323 213.253C143.452 219.135 146.539 224.622 150.438 229.481C172.551 211.723 205.031 208.393 232.62 223.447C235.129 224.815 237.531 226.3 239.824 227.89C243.652 222.795 246.67 216.985 248.642 210.609C246.234 209.592 243.852 208.444 241.505 207.164C214.846 192.618 200.152 164.946 201.867 137.651C195.267 136.8 188.74 137.137 182.521 138.512ZM181.332 138.34C160.776 143.221 143.745 159.378 138.809 181.38C136.413 192.061 137.183 202.714 140.497 212.359C154.561 206.651 166.648 196.446 174.319 182.389C181.885 168.523 183.974 153.072 181.332 138.34ZM203.023 137.461C204.081 137.622 205.141 137.814 206.201 138.037L208.953 128.109L209.012 128.122C211.89 128.76 214.749 129.593 217.57 130.627L217.656 130.659L214.498 142.052C217.548 143.082 220.548 144.399 223.465 146.014C242.695 156.664 252.911 177.281 251.237 197.854L261.514 200.159L261.501 200.304C261.192 203.537 260.646 206.767 259.856 209.968L259.85 209.991L249.81 207.739C249.65 208.38 249.479 209.016 249.298 209.647C246.853 208.623 244.434 207.462 242.052 206.162C215.687 191.777 201.226 164.388 203.023 137.461ZM285.64 164.669C284.162 160.119 282.333 155.679 280.167 151.395C272.048 135.334 259.189 121.454 242.258 112.079C236.963 109.146 231.507 106.786 225.96 104.976L215.883 141.326C218.646 142.321 221.366 143.548 224.017 145.016C243.345 155.72 253.753 176.284 252.446 196.956L289.467 205.261C291.227 191.507 289.854 177.636 285.64 164.669ZM286.746 164.38C291.006 177.522 292.385 191.577 290.586 205.513C290.537 205.891 290.486 206.269 290.432 206.648L262.636 200.412C262.6 200.793 262.56 201.174 262.518 201.555C262.232 204.088 261.804 206.617 261.228 209.131C261.143 209.502 261.055 209.872 260.963 210.241L311.081 221.484C323.183 170.507 300.594 115.69 252.512 89.0642C242.995 83.7936 233.071 79.9557 222.989 77.4793L209.259 127.008C209.63 127.09 210.001 127.176 210.372 127.264C212.558 127.787 214.732 128.422 216.885 129.171C217.245 129.296 217.604 129.424 217.962 129.556L225.177 103.528C225.54 103.641 225.903 103.757 226.265 103.874C231.897 105.709 237.436 108.103 242.811 111.08C259.661 120.411 272.526 134.149 280.766 150.06C283.153 154.669 285.151 159.46 286.746 164.38ZM239.432 229.007C237.095 227.373 234.641 225.849 232.074 224.448C204.746 209.538 172.59 212.941 150.841 230.623C158.596 239.844 169.323 246.691 181.987 249.532C204.193 254.514 226.279 245.811 239.432 229.007ZM181.737 250.646C212.256 257.492 242.553 238.997 250.637 209.094L320.805 224.835C304.007 293.475 235.261 336.32 166.003 320.783C95.9089 305.059 51.8337 235.49 67.558 165.396C83.2823 95.3023 152.852 51.2272 222.945 66.9514C223.504 67.0768 224.061 67.2055 224.616 67.3376L205.385 136.71C174.654 130.825 144.594 150.381 137.696 181.13C130.661 212.488 150.379 243.611 181.737 250.646Z" fill="#FF8A00" fill-opacity="0.5"/>
<path fill-rule="evenodd" clip-rule="evenodd" d="M100.034 363.684C6.31998 311.787 -27.5798 193.747 24.3164 100.034C76.2126 6.31998 194.253 -27.5798 287.966 24.3164C381.68 76.2126 415.58 194.253 363.684 287.966C311.787 381.68 193.747 415.58 100.034 363.684ZM25.3146 100.586C-26.2764 193.749 7.42397 311.095 100.586 362.685C193.749 414.276 311.095 380.576 362.685 287.414C414.276 194.251 380.576 76.9055 287.414 25.3146C194.251 -26.2764 76.9055 7.42397 25.3146 100.586Z" fill="#FF8A00" fill-opacity="0.5"/>
</svg>
