<svg width="131" height="131" viewBox="0 0 131 131" fill="none" xmlns="http://www.w3.org/2000/svg">
<path d="M64.0577 21.5556C66.0721 21.4868 67.1747 23.728 66.0417 25.3949C65.5578 26.1068 64.7543 26.5289 63.8942 26.5658C52.4568 27.0565 41.388 32.7592 34.4581 42.9549C22.816 60.0836 27.2637 83.407 44.3923 95.0492C61.521 106.691 84.8444 102.244 96.4866 85.115C103.417 74.9192 104.646 62.5286 100.893 51.7133C100.611 50.9 100.707 49.9975 101.191 49.2856C102.324 47.6187 104.814 47.8191 105.491 49.7174C109.895 62.0576 108.551 76.2594 100.622 87.9256C87.4274 107.338 60.9942 112.379 41.5817 99.1844C22.1692 85.99 17.1284 59.5568 30.3229 40.1443C38.2523 28.478 50.963 22.0023 64.0577 21.5556Z" fill="#C082FF" fill-opacity="0.7"/>
<path d="M68.646 33.7704C68.5137 33.6804 68.4261 33.5532 68.3832 33.3886C68.3492 33.2108 68.3818 33.0491 68.4807 32.9035L77.223 20.0413C77.3219 19.8957 77.4558 19.8126 77.6246 19.7919C77.8024 19.758 77.9575 19.786 78.0898 19.876L81.2459 22.0211C81.3914 22.12 81.4745 22.2539 81.4952 22.4227C81.5381 22.5873 81.5101 22.7424 81.4112 22.8879L79.477 25.7336C79.2015 26.1389 79.613 26.6574 80.0703 26.4812L84.4361 24.7989C84.5653 24.7512 84.7208 24.7215 84.9029 24.7099C85.085 24.6982 85.2818 24.7643 85.4936 24.9082L89.126 27.3771C89.2345 27.4509 89.3004 27.552 89.3237 27.6803C89.3283 27.7055 89.3331 27.7307 89.3381 27.7558C89.3637 27.8838 89.3396 28.002 89.2658 28.1106C89.2119 28.19 89.1359 28.2448 89.038 28.275L81.118 31.3125C80.9238 31.387 80.796 31.5738 80.797 31.7818L80.8417 41.0561C80.8418 41.0867 80.8459 41.1172 80.8471 41.1478C80.8498 41.2221 80.8251 41.2976 80.7729 41.3744C80.6919 41.4935 80.5737 41.5679 80.4181 41.5976C80.2847 41.623 80.1585 41.5953 80.0394 41.5143L76.2879 38.9645C76.0365 38.7936 75.8851 38.6036 75.8337 38.3946C75.7956 38.1945 75.7812 38.0591 75.7907 37.9881L75.7557 32.8302C75.7524 32.3396 75.118 32.1468 74.8422 32.5525L72.6689 35.7502C72.5699 35.8957 72.4315 35.9854 72.2537 36.0194C72.0981 36.049 71.9476 36.0144 71.802 35.9155L68.646 33.7704Z" fill="#C082FF" fill-opacity="0.7"/>
<path d="M87.0362 46.5602C85.7262 45.6697 84.7363 44.7067 84.0666 43.6712C83.4059 42.6224 83.0852 41.5145 83.1045 40.3475C83.1239 39.1806 83.5184 37.9881 84.2882 36.7702C84.6527 36.2054 85.0508 35.6055 85.4826 34.9703C85.9233 34.3219 86.3436 33.7177 86.7436 33.1577C87.5658 32.0334 88.5069 31.2608 89.5668 30.8398C90.64 30.4278 91.7879 30.3471 93.0105 30.5977C94.2331 30.8483 95.4795 31.4054 96.7499 32.2688C97.7688 32.9613 98.5943 33.6965 99.2264 34.4744C99.8584 35.2522 100.313 36.0351 100.59 36.8231C100.88 37.62 100.995 38.3755 100.936 39.0895C100.898 39.7992 100.702 40.4298 100.346 40.9813C100.265 41.1004 100.147 41.1748 99.9915 41.2045C99.8581 41.2299 99.7319 41.2021 99.6128 41.1212L95.9606 38.6388C95.8282 38.5489 95.7359 38.4571 95.6834 38.3634C95.6468 38.2732 95.6213 38.1768 95.6069 38.0741C95.6015 38.036 95.6029 37.9973 95.6067 37.9589C95.623 37.7914 95.6183 37.5865 95.5927 37.3441C95.5773 37.0822 95.4844 36.8062 95.3139 36.5162C95.1524 36.213 94.8666 35.922 94.4564 35.6431C93.8344 35.2204 93.2435 35.0509 92.6836 35.1347C92.1237 35.2184 91.5966 35.5953 91.1025 36.2654C90.3073 37.35 89.5338 38.488 88.782 39.6795C88.2958 40.4517 88.1144 41.1313 88.2379 41.7182C88.3835 42.3009 88.7673 42.8036 89.3893 43.2263C89.7995 43.5051 90.2083 43.6863 90.6159 43.7698C91.0366 43.8623 91.4341 43.8326 91.8082 43.6806C92.1913 43.5154 92.5358 43.2079 92.8416 42.758C92.9161 42.6483 92.8876 42.4991 92.778 42.4246L91.5672 41.6016C91.4217 41.5027 91.3319 41.3643 91.298 41.1865C91.2773 41.0176 91.312 40.8671 91.4019 40.7347L92.6566 38.8888C92.7555 38.7432 92.8828 38.6556 93.0384 38.6259C93.2162 38.592 93.3779 38.6245 93.5235 38.7235L98.7438 42.2717C98.8893 42.3706 98.9791 42.509 99.013 42.6868C99.0559 42.8514 99.0279 43.0064 98.9289 43.152L97.283 45.5736C96.4915 46.7381 95.5436 47.535 94.4391 47.9645C93.3347 48.3939 92.149 48.4876 90.882 48.2455C89.6149 48.0034 88.333 47.4416 87.0362 46.5602Z" fill="#C082FF" fill-opacity="0.7"/>
<path fill-rule="evenodd" clip-rule="evenodd" d="M73.4898 70.918C70.3852 75.4857 64.1656 76.6717 59.598 73.5672C55.0303 70.4626 53.8443 64.243 56.9489 59.6754C60.0534 55.1077 66.273 53.9217 70.8407 57.0262C75.4083 60.1308 76.5944 66.3504 73.4898 70.918ZM70.1816 68.6695C68.3189 71.4101 64.5871 72.1217 61.8465 70.259C59.1059 68.3962 58.3943 64.6645 60.257 61.9239C62.1198 59.1833 65.8515 58.4717 68.5921 60.3344C71.3327 62.1972 72.0443 65.9289 70.1816 68.6695Z" fill="#C082FF" fill-opacity="0.7"/>
<path fill-rule="evenodd" clip-rule="evenodd" d="M28.6806 119.055C58.3704 139.234 98.7976 131.525 118.977 101.835C139.157 72.1457 131.448 31.7185 101.758 11.5387C72.0683 -8.64107 31.6411 -0.931716 11.4613 28.758C-8.71845 58.4477 -1.0091 98.875 28.6806 119.055ZM114.842 99.0247C96.2146 126.431 58.8972 133.547 31.4913 114.919C4.08539 96.292 -3.03093 58.9746 15.5965 31.5687C34.224 4.16278 71.5414 -2.95355 98.9473 15.6739C126.353 34.3014 133.47 71.6188 114.842 99.0247Z" fill="#C082FF" fill-opacity="0.7"/>
</svg>
