<svg width="577" height="488" viewBox="0 0 577 488" fill="none" xmlns="http://www.w3.org/2000/svg">
<mask id="path-1-outside-1_281_1292" maskUnits="userSpaceOnUse" x="0.736328" y="0" width="577" height="488" fill="black">
<rect fill="white" x="0.736328" width="577" height="488"/>
<path fill-rule="evenodd" clip-rule="evenodd" d="M521.513 18.0142C521.52 17.8029 521.523 17.5905 521.523 17.3772C521.523 8.33239 515.323 1.0001 507.674 1H507.674L499.595 1V2L507.674 2H507.674H507.674C514.62 2.00009 520.523 8.72099 520.523 17.3772C520.523 18.0847 520.484 18.7793 520.408 19.4583L489.054 32.7544V2H489.208V1H489.054H489.01L488.054 1H488.01L422.374 1L421.374 1V2V32.6108V33.6108H422.374L488.01 33.6108H488.054V33.7544H489.054L507.674 33.7544H507.674C514.855 33.7543 520.76 27.2904 521.455 19.0142H541.736C560.514 19.0142 575.736 34.2365 575.736 53.0142V275.802C575.736 294.58 560.514 309.802 541.736 309.802H499.902C481.124 309.802 465.902 294.58 465.902 275.802L465.902 164.345L499.725 164.345V164.052C518.618 163.862 533.878 147.59 533.878 127.544C533.878 107.38 518.437 91.0341 499.39 91.0341C480.527 91.0341 465.202 107.065 464.906 126.959H464.902V127.501L464.902 127.544L464.902 163.345H298.756L298.486 96.701L298.155 96.7025V66.484C298.155 47.154 282.485 31.484 263.155 31.484L85.0171 31.484C65.6871 31.484 50.017 47.154 50.017 66.484V128.867C50.017 148.196 65.6871 163.867 85.017 163.867H109.979V162.867H85.017C66.2394 162.867 51.017 147.644 51.017 128.867V66.484C51.017 47.7063 66.2394 32.484 85.0171 32.484L263.155 32.484C281.933 32.484 297.155 47.7063 297.155 66.484V97.6751H297.49L297.756 163.345L220.474 163.345V164.345L297.76 164.345L298.003 224.313L63.5259 224.313H55.0664H36.0005C16.6705 224.313 1.00049 239.983 1.00049 259.313L1.00049 452C1.00049 471.33 16.6705 487 36.0005 487H91.051C110.381 487 126.051 471.33 126.051 452L126.051 424.231C134.558 424.231 141.454 417.796 141.454 409.857L141.453 409.799V390.493L141.453 389.493V389.203V319.601V318.601H140.453H111.649H110.649V319.601V389.203V390.203H111.649H112.658V390.493H140.453V409.799V409.804L140.454 409.857C140.454 417.18 134.072 423.231 126.051 423.231C118.031 423.231 111.649 417.18 111.649 409.857L111.649 408.857V401.472H110.649V408.857V409.857C110.649 417.482 117.011 423.721 125.051 424.201V452C125.051 470.778 109.829 486 91.051 486H36.0005C17.2228 486 2.00049 470.778 2.00049 452L2.00049 259.313C2.00049 240.535 17.2228 225.313 36.0005 225.313H55.0664H63.5259L298.007 225.313L298.155 261.886L298.17 261.886C298.701 281.558 313.932 297.333 332.643 297.333C351.69 297.333 367.131 280.987 367.131 260.823C367.131 241.253 352.587 225.279 334.317 224.355V224.313H332.643H299.003L298.76 164.345H464.902L464.902 275.802C464.902 295.132 480.572 310.802 499.902 310.802H541.736C561.066 310.802 576.736 295.132 576.736 275.802V53.0142C576.736 33.6842 561.066 18.0142 541.736 18.0142H521.513ZM299.151 260.823L299.007 225.313H332.643C351.085 225.313 366.131 241.157 366.131 260.823C366.131 280.489 351.085 296.333 332.643 296.333C314.201 296.333 299.155 280.489 299.155 260.823H299.151ZM499.39 163.345L465.902 163.345V127.502C465.924 107.855 480.961 92.0341 499.39 92.0341C517.832 92.0341 532.878 107.878 532.878 127.544C532.878 147.21 517.832 163.054 499.39 163.054V163.345ZM488.01 32.6108V2L422.374 2V32.6108L488.01 32.6108ZM184.982 163.345H204.402V164.345H184.982V163.345ZM174.267 163.345H154.847V164.345H174.267V163.345ZM126.051 163.345H145.471V164.345H126.051V163.345ZM140.453 319.601V389.203H111.649V319.601H140.453Z"/>
</mask>
<path fill-rule="evenodd" clip-rule="evenodd" d="M521.513 18.0142C521.52 17.8029 521.523 17.5905 521.523 17.3772C521.523 8.33239 515.323 1.0001 507.674 1H507.674L499.595 1V2L507.674 2H507.674H507.674C514.62 2.00009 520.523 8.72099 520.523 17.3772C520.523 18.0847 520.484 18.7793 520.408 19.4583L489.054 32.7544V2H489.208V1H489.054H489.01L488.054 1H488.01L422.374 1L421.374 1V2V32.6108V33.6108H422.374L488.01 33.6108H488.054V33.7544H489.054L507.674 33.7544H507.674C514.855 33.7543 520.76 27.2904 521.455 19.0142H541.736C560.514 19.0142 575.736 34.2365 575.736 53.0142V275.802C575.736 294.58 560.514 309.802 541.736 309.802H499.902C481.124 309.802 465.902 294.58 465.902 275.802L465.902 164.345L499.725 164.345V164.052C518.618 163.862 533.878 147.59 533.878 127.544C533.878 107.38 518.437 91.0341 499.39 91.0341C480.527 91.0341 465.202 107.065 464.906 126.959H464.902V127.501L464.902 127.544L464.902 163.345H298.756L298.486 96.701L298.155 96.7025V66.484C298.155 47.154 282.485 31.484 263.155 31.484L85.0171 31.484C65.6871 31.484 50.017 47.154 50.017 66.484V128.867C50.017 148.196 65.6871 163.867 85.017 163.867H109.979V162.867H85.017C66.2394 162.867 51.017 147.644 51.017 128.867V66.484C51.017 47.7063 66.2394 32.484 85.0171 32.484L263.155 32.484C281.933 32.484 297.155 47.7063 297.155 66.484V97.6751H297.49L297.756 163.345L220.474 163.345V164.345L297.76 164.345L298.003 224.313L63.5259 224.313H55.0664H36.0005C16.6705 224.313 1.00049 239.983 1.00049 259.313L1.00049 452C1.00049 471.33 16.6705 487 36.0005 487H91.051C110.381 487 126.051 471.33 126.051 452L126.051 424.231C134.558 424.231 141.454 417.796 141.454 409.857L141.453 409.799V390.493L141.453 389.493V389.203V319.601V318.601H140.453H111.649H110.649V319.601V389.203V390.203H111.649H112.658V390.493H140.453V409.799V409.804L140.454 409.857C140.454 417.18 134.072 423.231 126.051 423.231C118.031 423.231 111.649 417.18 111.649 409.857L111.649 408.857V401.472H110.649V408.857V409.857C110.649 417.482 117.011 423.721 125.051 424.201V452C125.051 470.778 109.829 486 91.051 486H36.0005C17.2228 486 2.00049 470.778 2.00049 452L2.00049 259.313C2.00049 240.535 17.2228 225.313 36.0005 225.313H55.0664H63.5259L298.007 225.313L298.155 261.886L298.17 261.886C298.701 281.558 313.932 297.333 332.643 297.333C351.69 297.333 367.131 280.987 367.131 260.823C367.131 241.253 352.587 225.279 334.317 224.355V224.313H332.643H299.003L298.76 164.345H464.902L464.902 275.802C464.902 295.132 480.572 310.802 499.902 310.802H541.736C561.066 310.802 576.736 295.132 576.736 275.802V53.0142C576.736 33.6842 561.066 18.0142 541.736 18.0142H521.513ZM299.151 260.823L299.007 225.313H332.643C351.085 225.313 366.131 241.157 366.131 260.823C366.131 280.489 351.085 296.333 332.643 296.333C314.201 296.333 299.155 280.489 299.155 260.823H299.151ZM499.39 163.345L465.902 163.345V127.502C465.924 107.855 480.961 92.0341 499.39 92.0341C517.832 92.0341 532.878 107.878 532.878 127.544C532.878 147.21 517.832 163.054 499.39 163.054V163.345ZM488.01 32.6108V2L422.374 2V32.6108L488.01 32.6108ZM184.982 163.345H204.402V164.345H184.982V163.345ZM174.267 163.345H154.847V164.345H174.267V163.345ZM126.051 163.345H145.471V164.345H126.051V163.345ZM140.453 319.601V389.203H111.649V319.601H140.453Z" fill="#A56FDC" fill-opacity="0.5"/>
<path d="M521.513 18.0142L521.263 18.0061L521.255 18.2642H521.513V18.0142ZM507.674 1V0.75V1ZM499.595 1V0.75H499.345V1H499.595ZM499.595 2H499.345V2.25H499.595V2ZM507.674 2V1.75V2ZM520.408 19.4583L520.505 19.6885L520.64 19.6314L520.656 19.4862L520.408 19.4583ZM489.054 32.7544H488.804V33.132L489.151 32.9846L489.054 32.7544ZM489.054 2V1.75H488.804V2H489.054ZM489.208 2V2.25H489.458V2H489.208ZM489.208 1H489.458V0.75H489.208V1ZM421.374 1V0.75H421.124V1H421.374ZM421.374 33.6108H421.124V33.8608H421.374V33.6108ZM488.054 33.6108H488.304V33.3608H488.054V33.6108ZM488.054 33.7544H487.804V34.0044H488.054V33.7544ZM507.674 33.7544V34.0044V33.7544ZM521.455 19.0142V18.7642H521.225L521.206 18.9933L521.455 19.0142ZM465.902 164.345V164.095H465.652V164.345H465.902ZM499.725 164.345V164.595H499.975V164.345H499.725ZM499.725 164.052L499.722 163.802L499.475 163.805V164.052H499.725ZM464.906 126.959V127.209H465.153L465.156 126.962L464.906 126.959ZM464.902 126.959V126.709H464.652V126.959H464.902ZM464.902 127.501L465.152 127.502V127.501H464.902ZM464.902 127.544L464.652 127.544V127.544H464.902ZM464.902 163.345V163.595H465.152V163.345H464.902ZM298.756 163.345L298.506 163.346L298.507 163.595H298.756V163.345ZM298.486 96.701L298.736 96.7L298.735 96.4499L298.485 96.451L298.486 96.701ZM298.155 96.7025H297.905V96.9536L298.156 96.9525L298.155 96.7025ZM109.979 163.867V164.117H110.229V163.867H109.979ZM109.979 162.867H110.229V162.617H109.979V162.867ZM297.155 97.6751H296.905V97.9251H297.155V97.6751ZM297.49 97.6751L297.74 97.6741L297.739 97.4251H297.49V97.6751ZM297.756 163.345V163.595H298.007L298.006 163.344L297.756 163.345ZM220.474 163.345V163.095H220.224V163.345H220.474ZM220.474 164.345H220.224V164.595H220.474V164.345ZM297.76 164.345L298.01 164.344L298.009 164.095H297.76V164.345ZM298.003 224.313V224.563H298.254L298.253 224.312L298.003 224.313ZM63.5259 224.313V224.063V224.313ZM36.0005 487V486.75V487ZM91.051 487V487.25V487ZM126.051 452H125.801H126.051ZM126.051 424.231V423.981H125.801V424.231H126.051ZM141.454 409.857H141.704V409.857L141.454 409.857ZM141.453 409.799H141.203V409.8L141.453 409.799ZM141.453 390.493H141.703V390.493L141.453 390.493ZM141.453 389.493H141.203V389.494L141.453 389.493ZM141.453 318.601H141.703V318.351H141.453V318.601ZM110.649 318.601V318.351H110.399V318.601H110.649ZM110.649 390.203H110.399V390.453H110.649V390.203ZM112.658 390.203H112.908V389.953H112.658V390.203ZM112.658 390.493H112.408V390.743H112.658V390.493ZM140.453 390.493H140.703V390.243H140.453V390.493ZM140.453 409.804H140.203V409.804L140.453 409.804ZM140.454 409.857H140.704V409.857L140.454 409.857ZM111.649 409.857H111.899V409.857L111.649 409.857ZM111.649 408.857H111.399V408.857L111.649 408.857ZM111.649 401.472H111.899V401.222H111.649V401.472ZM110.649 401.472V401.222H110.399V401.472H110.649ZM110.649 409.857H110.399H110.649ZM125.051 424.201H125.301V423.966L125.066 423.952L125.051 424.201ZM91.051 486V486.25V486ZM36.0005 486V485.75V486ZM63.5259 225.313V225.063V225.313ZM298.007 225.313L298.257 225.312L298.256 225.063H298.007V225.313ZM298.155 261.886L297.905 261.887L297.906 262.137L298.156 262.136L298.155 261.886ZM298.17 261.886L298.42 261.879L298.413 261.635L298.169 261.636L298.17 261.886ZM334.317 224.355H334.067V224.593L334.305 224.605L334.317 224.355ZM334.317 224.313H334.567V224.063H334.317V224.313ZM299.003 224.313L298.753 224.314L298.754 224.563H299.003V224.313ZM298.76 164.345V164.095H298.509L298.51 164.346L298.76 164.345ZM464.902 164.345H465.152V164.095H464.902V164.345ZM464.902 275.802H465.152H464.902ZM299.007 225.313V225.063H298.756L298.757 225.314L299.007 225.313ZM299.151 260.823L298.901 260.824L298.902 261.073H299.151V260.823ZM299.155 260.823H299.405V260.573H299.155V260.823ZM465.902 163.345H465.652V163.595H465.902V163.345ZM499.39 163.345V163.595H499.64V163.345H499.39ZM465.902 127.502L465.652 127.502V127.502H465.902ZM499.39 163.054V162.804H499.14V163.054H499.39ZM488.01 2H488.26V1.75H488.01V2ZM488.01 32.6108V32.8608H488.26V32.6108H488.01ZM422.374 2V1.75H422.124V2H422.374ZM422.374 32.6108H422.124V32.8608H422.374V32.6108ZM204.402 163.345H204.652V163.095H204.402V163.345ZM184.982 163.345V163.095H184.732V163.345H184.982ZM204.402 164.345V164.595H204.652V164.345H204.402ZM184.982 164.345H184.732V164.595H184.982V164.345ZM154.847 163.345V163.095H154.597V163.345H154.847ZM174.267 163.345H174.517V163.095H174.267V163.345ZM154.847 164.345H154.597V164.595H154.847V164.345ZM174.267 164.345V164.595H174.517V164.345H174.267ZM145.471 163.345H145.721V163.095H145.471V163.345ZM126.051 163.345V163.095H125.801V163.345H126.051ZM145.471 164.345V164.595H145.721V164.345H145.471ZM126.051 164.345H125.801V164.595H126.051V164.345ZM140.453 389.203V389.453H140.703V389.203H140.453ZM140.453 319.601H140.703V319.351H140.453V319.601ZM111.649 389.203H111.399V389.453H111.649V389.203ZM111.649 319.601V319.351H111.399V319.601H111.649ZM521.273 17.3772C521.273 17.5878 521.27 17.7975 521.263 18.0061L521.763 18.0223C521.77 17.8083 521.773 17.5932 521.773 17.3772H521.273ZM507.674 1.25C515.147 1.2501 521.273 8.42954 521.273 17.3772H521.773C521.773 8.23525 515.498 0.750107 507.674 0.75V1.25ZM507.674 1.25H507.674V0.75H507.674V1.25ZM499.595 1.25L507.674 1.25V0.75L499.595 0.75V1.25ZM499.845 2V1H499.345V2H499.845ZM507.674 1.75L499.595 1.75V2.25L507.674 2.25V1.75ZM507.674 1.75H507.674V2.25H507.674V1.75ZM507.674 1.75H507.674V2.25H507.674V1.75ZM520.773 17.3772C520.773 8.62296 514.795 1.7501 507.674 1.75V2.25C514.445 2.25009 520.273 8.81902 520.273 17.3772H520.773ZM520.656 19.4862C520.733 18.7979 520.773 18.094 520.773 17.3772H520.273C520.273 18.0754 520.234 18.7607 520.159 19.4304L520.656 19.4862ZM489.151 32.9846L520.505 19.6885L520.31 19.2282L488.956 32.5243L489.151 32.9846ZM488.804 2V32.7544H489.304V2H488.804ZM489.208 1.75H489.054V2.25H489.208V1.75ZM488.958 1V2H489.458V1H488.958ZM489.054 1.25H489.208V0.75H489.054V1.25ZM489.01 1.25H489.054V0.75H489.01V1.25ZM488.054 1.25L489.01 1.25V0.75L488.054 0.75V1.25ZM488.01 1.25H488.054V0.75H488.01V1.25ZM422.374 1.25L488.01 1.25V0.75L422.374 0.75V1.25ZM421.374 1.25L422.374 1.25V0.75L421.374 0.75V1.25ZM421.624 2V1H421.124V2H421.624ZM421.624 32.6108V2H421.124V32.6108H421.624ZM421.624 33.6108V32.6108H421.124V33.6108H421.624ZM422.374 33.3608H421.374V33.8608H422.374V33.3608ZM488.01 33.3608L422.374 33.3608V33.8608L488.01 33.8608V33.3608ZM488.054 33.3608H488.01V33.8608H488.054V33.3608ZM488.304 33.7544V33.6108H487.804V33.7544H488.304ZM489.054 33.5044H488.054V34.0044H489.054V33.5044ZM507.674 33.5044L489.054 33.5044V34.0044L507.674 34.0044V33.5044ZM507.674 33.5044H507.674V34.0044H507.674V33.5044ZM521.206 18.9933C520.519 27.1771 514.691 33.5043 507.674 33.5044V34.0044C515.02 34.0043 521.002 27.4037 521.704 19.0351L521.206 18.9933ZM541.736 18.7642H521.455V19.2642H541.736V18.7642ZM575.986 53.0142C575.986 34.0984 560.652 18.7642 541.736 18.7642V19.2642C560.376 19.2642 575.486 34.3746 575.486 53.0142H575.986ZM575.986 275.802V53.0142H575.486V275.802H575.986ZM541.736 310.052C560.652 310.052 575.986 294.718 575.986 275.802H575.486C575.486 294.442 560.376 309.552 541.736 309.552V310.052ZM499.902 310.052H541.736V309.552H499.902V310.052ZM465.652 275.802C465.652 294.718 480.986 310.052 499.902 310.052V309.552C481.262 309.552 466.152 294.442 466.152 275.802H465.652ZM465.652 164.345L465.652 275.802H466.152L466.152 164.345H465.652ZM499.725 164.095L465.902 164.095V164.595L499.725 164.595V164.095ZM499.475 164.052V164.345H499.975V164.052H499.475ZM533.628 127.544C533.628 147.466 518.465 163.614 499.722 163.802L499.727 164.302C518.77 164.11 534.128 147.713 534.128 127.544H533.628ZM499.39 91.2841C518.286 91.2841 533.628 107.505 533.628 127.544H534.128C534.128 107.256 518.588 90.7841 499.39 90.7841V91.2841ZM465.156 126.962C465.45 107.191 480.677 91.2841 499.39 91.2841V90.7841C480.378 90.7841 464.954 106.938 464.656 126.955L465.156 126.962ZM464.902 127.209H464.906V126.709H464.902V127.209ZM465.152 127.501V126.959H464.652V127.501H465.152ZM465.152 127.544L465.152 127.502L464.652 127.501L464.652 127.544L465.152 127.544ZM465.152 163.345L465.152 127.544H464.652L464.652 163.345H465.152ZM298.756 163.595H464.902V163.095H298.756V163.595ZM298.236 96.702L298.506 163.346L299.006 163.344L298.736 96.7L298.236 96.702ZM298.156 96.9525L298.487 96.951L298.485 96.451L298.154 96.4525L298.156 96.9525ZM297.905 66.484V96.7025H298.405V66.484H297.905ZM263.155 31.734C282.347 31.734 297.905 47.2921 297.905 66.484H298.405C298.405 47.016 282.623 31.234 263.155 31.234V31.734ZM85.0171 31.734L263.155 31.734V31.234L85.0171 31.234V31.734ZM50.267 66.484C50.267 47.2921 65.8251 31.734 85.0171 31.734V31.234C65.549 31.234 49.767 47.0159 49.767 66.484H50.267ZM50.267 128.867V66.484H49.767V128.867H50.267ZM85.017 163.617C65.8251 163.617 50.267 148.058 50.267 128.867H49.767C49.767 148.335 65.549 164.117 85.017 164.117V163.617ZM109.979 163.617H85.017V164.117H109.979V163.617ZM109.729 162.867V163.867H110.229V162.867H109.729ZM85.017 163.117H109.979V162.617H85.017V163.117ZM50.767 128.867C50.767 147.782 66.1013 163.117 85.017 163.117V162.617C66.3774 162.617 51.267 147.506 51.267 128.867H50.767ZM50.767 66.484V128.867H51.267V66.484H50.767ZM85.0171 32.234C66.1013 32.234 50.767 47.5682 50.767 66.484H51.267C51.267 47.8444 66.3774 32.734 85.0171 32.734V32.234ZM263.155 32.234L85.0171 32.234V32.734L263.155 32.734V32.234ZM297.405 66.484C297.405 47.5682 282.071 32.234 263.155 32.234V32.734C281.795 32.734 296.905 47.8444 296.905 66.484H297.405ZM297.405 97.6751V66.484H296.905V97.6751H297.405ZM297.49 97.4251H297.155V97.9251H297.49V97.4251ZM298.006 163.344L297.74 97.6741L297.24 97.6761L297.506 163.346L298.006 163.344ZM220.474 163.595L297.756 163.595V163.095L220.474 163.095V163.595ZM220.724 164.345V163.345H220.224V164.345H220.724ZM297.76 164.095L220.474 164.095V164.595L297.76 164.595V164.095ZM298.253 224.312L298.01 164.344L297.51 164.346L297.753 224.314L298.253 224.312ZM63.5259 224.563L298.003 224.563V224.063L63.5259 224.063V224.563ZM55.0664 224.563H63.5259V224.063H55.0664V224.563ZM36.0005 224.563H55.0664V224.063H36.0005V224.563ZM1.25049 259.313C1.25049 240.121 16.8086 224.563 36.0005 224.563V224.063C16.5325 224.063 0.750488 239.845 0.750488 259.313H1.25049ZM1.25049 452L1.25049 259.313H0.750488L0.750488 452H1.25049ZM36.0005 486.75C16.8086 486.75 1.25049 471.192 1.25049 452H0.750488C0.750488 471.468 16.5325 487.25 36.0005 487.25V486.75ZM91.051 486.75H36.0005V487.25H91.051V486.75ZM125.801 452C125.801 471.192 110.243 486.75 91.051 486.75V487.25C110.519 487.25 126.301 471.468 126.301 452H125.801ZM125.801 424.231L125.801 452H126.301L126.301 424.231H125.801ZM141.204 409.857C141.204 417.642 134.436 423.981 126.051 423.981V424.481C134.679 424.481 141.704 417.95 141.704 409.857H141.204ZM141.203 409.8L141.204 409.858L141.704 409.857L141.703 409.799L141.203 409.8ZM141.203 390.493V409.799H141.703V390.493H141.203ZM141.203 389.494L141.203 390.494L141.703 390.493L141.703 389.493L141.203 389.494ZM141.203 389.203V389.493H141.703V389.203H141.203ZM141.203 319.601V389.203H141.703V319.601H141.203ZM141.203 318.601V319.601H141.703V318.601H141.203ZM140.453 318.851H141.453V318.351H140.453V318.851ZM111.649 318.851H140.453V318.351H111.649V318.851ZM110.649 318.851H111.649V318.351H110.649V318.851ZM110.899 319.601V318.601H110.399V319.601H110.899ZM110.899 389.203V319.601H110.399V389.203H110.899ZM110.899 390.203V389.203H110.399V390.203H110.899ZM111.649 389.953H110.649V390.453H111.649V389.953ZM112.658 389.953H111.649V390.453H112.658V389.953ZM112.908 390.493V390.203H112.408V390.493H112.908ZM140.453 390.243H112.658V390.743H140.453V390.243ZM140.703 409.799V390.493H140.203V409.799H140.703ZM140.703 409.804V409.799H140.203V409.804H140.703ZM140.704 409.857L140.703 409.803L140.203 409.804L140.204 409.858L140.704 409.857ZM126.051 423.481C134.194 423.481 140.704 417.333 140.704 409.857H140.204C140.204 417.026 133.95 422.981 126.051 422.981V423.481ZM111.399 409.857C111.399 417.333 117.909 423.481 126.051 423.481V422.981C118.153 422.981 111.899 417.026 111.899 409.857H111.399ZM111.399 408.857L111.399 409.857L111.899 409.857L111.899 408.857L111.399 408.857ZM111.399 401.472V408.857H111.899V401.472H111.399ZM110.649 401.722H111.649V401.222H110.649V401.722ZM110.899 408.857V401.472H110.399V408.857H110.899ZM110.899 409.857V408.857H110.399V409.857H110.899ZM125.066 423.952C117.142 423.478 110.899 417.334 110.899 409.857H110.399C110.399 417.63 116.88 423.963 125.036 424.451L125.066 423.952ZM125.301 452V424.201H124.801V452H125.301ZM91.051 486.25C109.967 486.25 125.301 470.916 125.301 452H124.801C124.801 470.64 109.691 485.75 91.051 485.75V486.25ZM36.0005 486.25H91.051V485.75H36.0005V486.25ZM1.75049 452C1.75049 470.916 17.0847 486.25 36.0005 486.25V485.75C17.3608 485.75 2.25049 470.64 2.25049 452H1.75049ZM1.75049 259.313L1.75049 452H2.25049L2.25049 259.313H1.75049ZM36.0005 225.063C17.0847 225.063 1.75049 240.397 1.75049 259.313H2.25049C2.25049 240.673 17.3608 225.563 36.0005 225.563V225.063ZM55.0664 225.063H36.0005V225.563H55.0664V225.063ZM63.5259 225.063H55.0664V225.563H63.5259V225.063ZM298.007 225.063L63.5259 225.063V225.563L298.007 225.563V225.063ZM298.405 261.885L298.257 225.312L297.757 225.314L297.905 261.887L298.405 261.885ZM298.169 261.636L298.154 261.636L298.156 262.136L298.171 262.136L298.169 261.636ZM332.643 297.083C314.081 297.083 298.948 281.429 298.42 261.879L297.92 261.893C298.455 281.687 313.783 297.583 332.643 297.583V297.083ZM366.881 260.823C366.881 280.862 351.539 297.083 332.643 297.083V297.583C351.842 297.583 367.381 281.111 367.381 260.823H366.881ZM334.305 224.605C352.43 225.522 366.881 241.374 366.881 260.823H367.381C367.381 241.132 352.744 225.037 334.33 224.105L334.305 224.605ZM334.067 224.313V224.355H334.567V224.313H334.067ZM332.643 224.563H334.317V224.063H332.643V224.563ZM299.003 224.563H332.643V224.063H299.003V224.563ZM298.51 164.346L298.753 224.314L299.253 224.312L299.01 164.344L298.51 164.346ZM464.902 164.095H298.76V164.595H464.902V164.095ZM465.152 275.802L465.152 164.345H464.652L464.652 275.802H465.152ZM499.902 310.552C480.71 310.552 465.152 294.994 465.152 275.802H464.652C464.652 295.27 480.434 311.052 499.902 311.052V310.552ZM541.736 310.552H499.902V311.052H541.736V310.552ZM576.486 275.802C576.486 294.994 560.928 310.552 541.736 310.552V311.052C561.204 311.052 576.986 295.27 576.986 275.802H576.486ZM576.486 53.0142V275.802H576.986V53.0142H576.486ZM541.736 18.2642C560.928 18.2642 576.486 33.8223 576.486 53.0142H576.986C576.986 33.5462 561.204 17.7642 541.736 17.7642V18.2642ZM521.513 18.2642H541.736V17.7642H521.513V18.2642ZM298.757 225.314L298.901 260.824L299.401 260.822L299.257 225.312L298.757 225.314ZM332.643 225.063H299.007V225.563H332.643V225.063ZM366.381 260.823C366.381 241.032 351.236 225.063 332.643 225.063V225.563C350.934 225.563 365.881 241.281 365.881 260.823H366.381ZM332.643 296.583C351.236 296.583 366.381 280.613 366.381 260.823H365.881C365.881 280.364 350.934 296.083 332.643 296.083V296.583ZM298.905 260.823C298.905 280.613 314.05 296.583 332.643 296.583V296.083C314.352 296.083 299.405 280.364 299.405 260.823H298.905ZM299.151 261.073H299.155V260.573H299.151V261.073ZM465.902 163.595L499.39 163.595V163.095L465.902 163.095V163.595ZM465.652 127.502V163.345H466.152V127.502H465.652ZM499.39 91.7841C480.81 91.7841 465.674 107.731 465.652 127.502L466.152 127.502C466.173 107.98 481.112 92.2841 499.39 92.2841V91.7841ZM533.128 127.544C533.128 107.753 517.983 91.7841 499.39 91.7841V92.2841C517.681 92.2841 532.628 108.003 532.628 127.544H533.128ZM499.39 163.304C517.983 163.304 533.128 147.335 533.128 127.544H532.628C532.628 147.085 517.681 162.804 499.39 162.804V163.304ZM499.64 163.345V163.054H499.14V163.345H499.64ZM487.76 2V32.6108H488.26V2H487.76ZM422.374 2.25L488.01 2.25V1.75L422.374 1.75V2.25ZM422.624 32.6108V2H422.124V32.6108H422.624ZM488.01 32.3608L422.374 32.3608V32.8608L488.01 32.8608V32.3608ZM204.402 163.095H184.982V163.595H204.402V163.095ZM204.652 164.345V163.345H204.152V164.345H204.652ZM184.982 164.595H204.402V164.095H184.982V164.595ZM184.732 163.345V164.345H185.232V163.345H184.732ZM154.847 163.595H174.267V163.095H154.847V163.595ZM155.097 164.345V163.345H154.597V164.345H155.097ZM174.267 164.095H154.847V164.595H174.267V164.095ZM174.017 163.345V164.345H174.517V163.345H174.017ZM145.471 163.095H126.051V163.595H145.471V163.095ZM145.721 164.345V163.345H145.221V164.345H145.721ZM126.051 164.595H145.471V164.095H126.051V164.595ZM125.801 163.345V164.345H126.301V163.345H125.801ZM140.703 389.203V319.601H140.203V389.203H140.703ZM111.649 389.453H140.453V388.953H111.649V389.453ZM111.399 319.601V389.203H111.899V319.601H111.399ZM140.453 319.351H111.649V319.851H140.453V319.351Z" fill="#A56FDC" fill-opacity="0.5" mask="url(#path-1-outside-1_281_1292)"/>
</svg>
