<svg width="256" height="384" viewBox="0 0 256 384" fill="none" xmlns="http://www.w3.org/2000/svg">
<path d="M36.6433 2.36453L190.783 2.12044L131.789 105.138H131.444V106.272H132.368L132.427 106.306L132.446 106.272H253.885L2.97812 380.386L79.3149 176.923L78.2554 176.519L78.2554 176.457H36.4419L36.1355 177.591H77.8531L0.925674 382.628L0.830235 382.732L0.871983 382.771L0.59668 383.505L1.65626 383.909L1.91032 383.232L255.913 105.735L255.083 104.963L254.851 105.216V105.138H133.095L192 2.27644L191.73 2.11894L192.085 2.11837L192.084 0.984375L35.6991 1.23202L35.6998 1.71187L18.124 37.8138L18.9591 38.6891L36.6433 2.36453Z" fill="#3E6DD9" fill-opacity="0.8"/>
</svg>
